<mxfile host="app.diagrams.net" modified="2023-12-04T23:43:13.162Z" agent="Mozilla/5.0 (X11; CrOS x86_64 14541.0.0) AppleWebKit/537.36 (KHTML, like Gecko) Chrome/118.0.0.0 Safari/537.36" etag="5hDHpiEHyXoK1CdwKmhj" version="22.1.5" type="google">
  <diagram id="C5RBs43oDa-KdzZeNtuy" name="Page-1">
    <mxGraphModel grid="1" page="1" gridSize="10" guides="1" tooltips="1" connect="1" arrows="1" fold="1" pageScale="1" pageWidth="827" pageHeight="1169" math="0" shadow="0">
      <root>
        <mxCell id="WIyWlLk6GJQsqaUBKTNV-0" />
        <mxCell id="WIyWlLk6GJQsqaUBKTNV-1" parent="WIyWlLk6GJQsqaUBKTNV-0" />
        <mxCell id="hYofDlgnTnXuhp9tO45j-22" value="" style="edgeStyle=orthogonalEdgeStyle;rounded=0;orthogonalLoop=1;jettySize=auto;html=1;" edge="1" parent="WIyWlLk6GJQsqaUBKTNV-1" source="WIyWlLk6GJQsqaUBKTNV-3" target="hYofDlgnTnXuhp9tO45j-4">
          <mxGeometry relative="1" as="geometry" />
        </mxCell>
        <mxCell id="WIyWlLk6GJQsqaUBKTNV-3" value="Move forward at 40 speed&lt;span id=&quot;docs-internal-guid-fa45b856-7fff-fb46-79e6-324b232b3a65&quot;&gt;&lt;/span&gt;" style="rounded=1;whiteSpace=wrap;html=1;fontSize=12;glass=0;strokeWidth=1;shadow=0;" vertex="1" parent="WIyWlLk6GJQsqaUBKTNV-1">
          <mxGeometry x="150" y="-410" width="120" height="40" as="geometry" />
        </mxCell>
        <mxCell id="hYofDlgnTnXuhp9tO45j-21" value="" style="edgeStyle=orthogonalEdgeStyle;rounded=0;orthogonalLoop=1;jettySize=auto;html=1;" edge="1" parent="WIyWlLk6GJQsqaUBKTNV-1" source="hYofDlgnTnXuhp9tO45j-0" target="WIyWlLk6GJQsqaUBKTNV-3">
          <mxGeometry relative="1" as="geometry" />
        </mxCell>
        <mxCell id="hYofDlgnTnXuhp9tO45j-0" value="Start" style="ellipse;whiteSpace=wrap;html=1;direction=west;" vertex="1" parent="WIyWlLk6GJQsqaUBKTNV-1">
          <mxGeometry x="150" y="-520" width="120" height="60" as="geometry" />
        </mxCell>
        <mxCell id="hYofDlgnTnXuhp9tO45j-9" value="" style="edgeStyle=orthogonalEdgeStyle;rounded=0;orthogonalLoop=1;jettySize=auto;html=1;" edge="1" parent="WIyWlLk6GJQsqaUBKTNV-1" source="hYofDlgnTnXuhp9tO45j-4" target="hYofDlgnTnXuhp9tO45j-5">
          <mxGeometry relative="1" as="geometry" />
        </mxCell>
        <mxCell id="hYofDlgnTnXuhp9tO45j-4" value="Turn 90 degrees&lt;span id=&quot;docs-internal-guid-fa45b856-7fff-fb46-79e6-324b232b3a65&quot;&gt;&lt;/span&gt;&lt;span id=&quot;docs-internal-guid-fa45b856-7fff-fb46-79e6-324b232b3a65&quot;&gt;&lt;/span&gt;" style="rounded=1;whiteSpace=wrap;html=1;fontSize=12;glass=0;strokeWidth=1;shadow=0;" vertex="1" parent="WIyWlLk6GJQsqaUBKTNV-1">
          <mxGeometry x="150" y="-330" width="120" height="40" as="geometry" />
        </mxCell>
        <mxCell id="hYofDlgnTnXuhp9tO45j-5" value="Move forward at 40 speed&lt;span id=&quot;docs-internal-guid-fa45b856-7fff-fb46-79e6-324b232b3a65&quot;&gt;&lt;/span&gt;&lt;span id=&quot;docs-internal-guid-fa45b856-7fff-fb46-79e6-324b232b3a65&quot;&gt;&lt;/span&gt;" style="rounded=1;whiteSpace=wrap;html=1;fontSize=12;glass=0;strokeWidth=1;shadow=0;" vertex="1" parent="WIyWlLk6GJQsqaUBKTNV-1">
          <mxGeometry x="150" y="-250" width="120" height="40" as="geometry" />
        </mxCell>
        <mxCell id="yvHlsB7ja48fy0tGTS86-6" value="" style="edgeStyle=orthogonalEdgeStyle;rounded=0;orthogonalLoop=1;jettySize=auto;html=1;" edge="1" parent="WIyWlLk6GJQsqaUBKTNV-1" target="yvHlsB7ja48fy0tGTS86-8">
          <mxGeometry relative="1" as="geometry">
            <mxPoint x="210" y="-210" as="sourcePoint" />
          </mxGeometry>
        </mxCell>
        <mxCell id="yvHlsB7ja48fy0tGTS86-7" value="" style="edgeStyle=orthogonalEdgeStyle;rounded=0;orthogonalLoop=1;jettySize=auto;html=1;" edge="1" parent="WIyWlLk6GJQsqaUBKTNV-1" source="yvHlsB7ja48fy0tGTS86-8" target="yvHlsB7ja48fy0tGTS86-9">
          <mxGeometry relative="1" as="geometry" />
        </mxCell>
        <mxCell id="yvHlsB7ja48fy0tGTS86-8" value="Turn -90 degrees&lt;span id=&quot;docs-internal-guid-fa45b856-7fff-fb46-79e6-324b232b3a65&quot;&gt;&lt;/span&gt;&lt;span id=&quot;docs-internal-guid-fa45b856-7fff-fb46-79e6-324b232b3a65&quot;&gt;&lt;/span&gt;" style="rounded=1;whiteSpace=wrap;html=1;fontSize=12;glass=0;strokeWidth=1;shadow=0;" vertex="1" parent="WIyWlLk6GJQsqaUBKTNV-1">
          <mxGeometry x="150" y="-170" width="120" height="40" as="geometry" />
        </mxCell>
        <mxCell id="yvHlsB7ja48fy0tGTS86-9" value="Move forward at 40 soeed&lt;span id=&quot;docs-internal-guid-fa45b856-7fff-fb46-79e6-324b232b3a65&quot;&gt;&lt;/span&gt;&lt;span id=&quot;docs-internal-guid-fa45b856-7fff-fb46-79e6-324b232b3a65&quot;&gt;&lt;/span&gt;" style="rounded=1;whiteSpace=wrap;html=1;fontSize=12;glass=0;strokeWidth=1;shadow=0;" vertex="1" parent="WIyWlLk6GJQsqaUBKTNV-1">
          <mxGeometry x="150" y="-90" width="120" height="40" as="geometry" />
        </mxCell>
        <mxCell id="yvHlsB7ja48fy0tGTS86-10" value="" style="edgeStyle=orthogonalEdgeStyle;rounded=0;orthogonalLoop=1;jettySize=auto;html=1;" edge="1" parent="WIyWlLk6GJQsqaUBKTNV-1" target="yvHlsB7ja48fy0tGTS86-12">
          <mxGeometry relative="1" as="geometry">
            <mxPoint x="210" y="-50" as="sourcePoint" />
          </mxGeometry>
        </mxCell>
        <mxCell id="yvHlsB7ja48fy0tGTS86-11" value="" style="edgeStyle=orthogonalEdgeStyle;rounded=0;orthogonalLoop=1;jettySize=auto;html=1;" edge="1" parent="WIyWlLk6GJQsqaUBKTNV-1" source="yvHlsB7ja48fy0tGTS86-12" target="yvHlsB7ja48fy0tGTS86-13">
          <mxGeometry relative="1" as="geometry" />
        </mxCell>
        <mxCell id="yvHlsB7ja48fy0tGTS86-12" value="Turn 90 degrees&lt;span id=&quot;docs-internal-guid-fa45b856-7fff-fb46-79e6-324b232b3a65&quot;&gt;&lt;/span&gt;&lt;span id=&quot;docs-internal-guid-fa45b856-7fff-fb46-79e6-324b232b3a65&quot;&gt;&lt;/span&gt;" style="rounded=1;whiteSpace=wrap;html=1;fontSize=12;glass=0;strokeWidth=1;shadow=0;" vertex="1" parent="WIyWlLk6GJQsqaUBKTNV-1">
          <mxGeometry x="150" y="-10" width="120" height="40" as="geometry" />
        </mxCell>
        <mxCell id="yvHlsB7ja48fy0tGTS86-13" value="Move forward at 130 speed then slow down&lt;span id=&quot;docs-internal-guid-fa45b856-7fff-fb46-79e6-324b232b3a65&quot;&gt;&lt;/span&gt;&lt;span id=&quot;docs-internal-guid-fa45b856-7fff-fb46-79e6-324b232b3a65&quot;&gt;&lt;/span&gt;" style="rounded=1;whiteSpace=wrap;html=1;fontSize=12;glass=0;strokeWidth=1;shadow=0;" vertex="1" parent="WIyWlLk6GJQsqaUBKTNV-1">
          <mxGeometry x="150" y="70" width="120" height="40" as="geometry" />
        </mxCell>
        <mxCell id="yvHlsB7ja48fy0tGTS86-14" value="" style="edgeStyle=orthogonalEdgeStyle;rounded=0;orthogonalLoop=1;jettySize=auto;html=1;" edge="1" parent="WIyWlLk6GJQsqaUBKTNV-1" target="yvHlsB7ja48fy0tGTS86-16">
          <mxGeometry relative="1" as="geometry">
            <mxPoint x="210" y="110" as="sourcePoint" />
          </mxGeometry>
        </mxCell>
        <mxCell id="yvHlsB7ja48fy0tGTS86-15" value="" style="edgeStyle=orthogonalEdgeStyle;rounded=0;orthogonalLoop=1;jettySize=auto;html=1;" edge="1" parent="WIyWlLk6GJQsqaUBKTNV-1" source="yvHlsB7ja48fy0tGTS86-16" target="yvHlsB7ja48fy0tGTS86-17">
          <mxGeometry relative="1" as="geometry" />
        </mxCell>
        <mxCell id="yvHlsB7ja48fy0tGTS86-16" value="Turn 225 degrees&lt;span id=&quot;docs-internal-guid-fa45b856-7fff-fb46-79e6-324b232b3a65&quot;&gt;&lt;/span&gt;&lt;span id=&quot;docs-internal-guid-fa45b856-7fff-fb46-79e6-324b232b3a65&quot;&gt;&lt;/span&gt;" style="rounded=1;whiteSpace=wrap;html=1;fontSize=12;glass=0;strokeWidth=1;shadow=0;" vertex="1" parent="WIyWlLk6GJQsqaUBKTNV-1">
          <mxGeometry x="150" y="150" width="120" height="40" as="geometry" />
        </mxCell>
        <mxCell id="yvHlsB7ja48fy0tGTS86-21" value="" style="edgeStyle=orthogonalEdgeStyle;rounded=0;orthogonalLoop=1;jettySize=auto;html=1;" edge="1" parent="WIyWlLk6GJQsqaUBKTNV-1" source="yvHlsB7ja48fy0tGTS86-17" target="yvHlsB7ja48fy0tGTS86-20">
          <mxGeometry relative="1" as="geometry" />
        </mxCell>
        <mxCell id="yvHlsB7ja48fy0tGTS86-19" value="" style="edgeStyle=orthogonalEdgeStyle;rounded=0;orthogonalLoop=1;jettySize=auto;html=1;" edge="1" parent="WIyWlLk6GJQsqaUBKTNV-1" source="yvHlsB7ja48fy0tGTS86-17">
          <mxGeometry relative="1" as="geometry">
            <mxPoint x="210" y="340" as="targetPoint" />
          </mxGeometry>
        </mxCell>
        <mxCell id="yvHlsB7ja48fy0tGTS86-17" value="Move forward at 200 speed&lt;span id=&quot;docs-internal-guid-fa45b856-7fff-fb46-79e6-324b232b3a65&quot;&gt;&lt;/span&gt;&lt;span id=&quot;docs-internal-guid-fa45b856-7fff-fb46-79e6-324b232b3a65&quot;&gt;&lt;/span&gt;" style="rounded=1;whiteSpace=wrap;html=1;fontSize=12;glass=0;strokeWidth=1;shadow=0;" vertex="1" parent="WIyWlLk6GJQsqaUBKTNV-1">
          <mxGeometry x="150" y="230" width="120" height="40" as="geometry" />
        </mxCell>
        <mxCell id="yvHlsB7ja48fy0tGTS86-20" value="End" style="ellipse;whiteSpace=wrap;html=1;rounded=1;glass=0;strokeWidth=1;shadow=0;" vertex="1" parent="WIyWlLk6GJQsqaUBKTNV-1">
          <mxGeometry x="145" y="320" width="130" height="80" as="geometry" />
        </mxCell>
      </root>
    </mxGraphModel>
  </diagram>
</mxfile>
